# Wavefront OBJ file automatically generated by Tiled2Unity

# Vertices (Count = 255)
v 0 -16 0
v -16 -16 0
v -16 0 0
v 0 0 0
v -32 -16 0
v -32 0 0
v -48 -16 0
v -48 0 0
v -64 -16 0
v -64 0 0
v -80 -16 0
v -80 0 0
v -96 -16 0
v -96 0 0
v -112 -16 0
v -112 0 0
v -128 -16 0
v -128 0 0
v -144 -16 0
v -144 0 0
v -160 -16 0
v -160 0 0
v -176 -16 0
v -176 0 0
v -192 -16 0
v -192 0 0
v -208 -16 0
v -208 0 0
v -224 -16 0
v -224 0 0
v -240 -16 0
v -240 0 0
v -256 -16 0
v -256 0 0
v 0 -32 0
v -16 -32 0
v -32 -32 0
v -48 -32 0
v -64 -32 0
v -80 -32 0
v -96 -32 0
v -112 -32 0
v -128 -32 0
v -144 -32 0
v -160 -32 0
v -176 -32 0
v -192 -32 0
v -208 -32 0
v -224 -32 0
v -240 -32 0
v -256 -32 0
v 0 -48 0
v -16 -48 0
v -32 -48 0
v -48 -48 0
v -64 -48 0
v -80 -48 0
v -96 -48 0
v -112 -48 0
v -128 -48 0
v -144 -48 0
v -160 -48 0
v -176 -48 0
v -192 -48 0
v -208 -48 0
v -224 -48 0
v -240 -48 0
v -256 -48 0
v 0 -64 0
v -16 -64 0
v -32 -64 0
v -48 -64 0
v -64 -64 0
v -80 -64 0
v -96 -64 0
v -112 -64 0
v -128 -64 0
v -144 -64 0
v -160 -64 0
v -176 -64 0
v -192 -64 0
v -208 -64 0
v -224 -64 0
v -240 -64 0
v -256 -64 0
v 0 -80 0
v -16 -80 0
v -32 -80 0
v -48 -80 0
v -64 -80 0
v -80 -80 0
v -96 -80 0
v -112 -80 0
v -128 -80 0
v -144 -80 0
v -160 -80 0
v -176 -80 0
v -192 -80 0
v -208 -80 0
v -224 -80 0
v -240 -80 0
v -256 -80 0
v 0 -96 0
v -16 -96 0
v -32 -96 0
v -48 -96 0
v -64 -96 0
v -80 -96 0
v -96 -96 0
v -112 -96 0
v -128 -96 0
v -144 -96 0
v -160 -96 0
v -176 -96 0
v -192 -96 0
v -208 -96 0
v -224 -96 0
v -240 -96 0
v -256 -96 0
v 0 -112 0
v -16 -112 0
v -32 -112 0
v -48 -112 0
v -64 -112 0
v -80 -112 0
v -96 -112 0
v -112 -112 0
v -128 -112 0
v -144 -112 0
v -160 -112 0
v -176 -112 0
v -192 -112 0
v -208 -112 0
v -224 -112 0
v -240 -112 0
v -256 -112 0
v 0 -128 0
v -16 -128 0
v -32 -128 0
v -48 -128 0
v -64 -128 0
v -80 -128 0
v -96 -128 0
v -112 -128 0
v -128 -128 0
v -144 -128 0
v -160 -128 0
v -176 -128 0
v -192 -128 0
v -208 -128 0
v -224 -128 0
v -240 -128 0
v -256 -128 0
v 0 -144 0
v -16 -144 0
v -32 -144 0
v -48 -144 0
v -64 -144 0
v -80 -144 0
v -96 -144 0
v -112 -144 0
v -128 -144 0
v -144 -144 0
v -160 -144 0
v -176 -144 0
v -192 -144 0
v -208 -144 0
v -224 -144 0
v -240 -144 0
v -256 -144 0
v 0 -160 0
v -16 -160 0
v -32 -160 0
v -48 -160 0
v -64 -160 0
v -80 -160 0
v -96 -160 0
v -112 -160 0
v -128 -160 0
v -144 -160 0
v -160 -160 0
v -176 -160 0
v -192 -160 0
v -208 -160 0
v -224 -160 0
v -240 -160 0
v -256 -160 0
v 0 -176 0
v -16 -176 0
v -32 -176 0
v -48 -176 0
v -64 -176 0
v -80 -176 0
v -96 -176 0
v -112 -176 0
v -128 -176 0
v -144 -176 0
v -160 -176 0
v -176 -176 0
v -192 -176 0
v -208 -176 0
v -224 -176 0
v -240 -176 0
v -256 -176 0
v 0 -192 0
v -16 -192 0
v -32 -192 0
v -48 -192 0
v -64 -192 0
v -80 -192 0
v -96 -192 0
v -112 -192 0
v -128 -192 0
v -144 -192 0
v -160 -192 0
v -176 -192 0
v -192 -192 0
v -208 -192 0
v -224 -192 0
v -240 -192 0
v -256 -192 0
v 0 -208 0
v -16 -208 0
v -32 -208 0
v -48 -208 0
v -64 -208 0
v -80 -208 0
v -96 -208 0
v -112 -208 0
v -128 -208 0
v -144 -208 0
v -160 -208 0
v -176 -208 0
v -192 -208 0
v -208 -208 0
v -224 -208 0
v -240 -208 0
v -256 -208 0
v 0 -224 0
v -16 -224 0
v -32 -224 0
v -48 -224 0
v -64 -224 0
v -80 -224 0
v -96 -224 0
v -112 -224 0
v -128 -224 0
v -144 -224 0
v -160 -224 0
v -176 -224 0
v -192 -224 0
v -208 -224 0
v -224 -224 0
v -240 -224 0
v -256 -224 0

# Texture Coorindates (Count = 56)
vt 0.0001220703 0.7501221
vt 0.1248779 0.7501221
vt 0.1248779 0.8748779
vt 0.0001220703 0.8748779
vt 0.6251221 0.2501221
vt 0.7498779 0.2501221
vt 0.7498779 0.3748779
vt 0.6251221 0.3748779
vt 0.7501221 0.2501221
vt 0.8748779 0.2501221
vt 0.8748779 0.3748779
vt 0.7501221 0.3748779
vt 0.8751221 0.2501221
vt 0.9998779 0.2501221
vt 0.9998779 0.3748779
vt 0.8751221 0.3748779
vt 0.2501221 0.2501221
vt 0.3748779 0.2501221
vt 0.3748779 0.3748779
vt 0.2501221 0.3748779
vt 0.5001221 0.2501221
vt 0.6248779 0.2501221
vt 0.6248779 0.3748779
vt 0.5001221 0.3748779
vt 0.5001221 0.3751221
vt 0.6248779 0.3751221
vt 0.6248779 0.4998779
vt 0.5001221 0.4998779
vt 0.7501221 0.8751221
vt 0.8748779 0.8751221
vt 0.8748779 0.9998779
vt 0.7501221 0.9998779
vt 0.5001221 0.5001221
vt 0.6248779 0.5001221
vt 0.6248779 0.6248779
vt 0.5001221 0.6248779
vt 0.7501221 0.7501221
vt 0.8748779 0.7501221
vt 0.8748779 0.8748779
vt 0.7501221 0.8748779
vt 0.7501221 0.6251221
vt 0.8748779 0.6251221
vt 0.8748779 0.7498779
vt 0.7501221 0.7498779
vt 0.3751221 0.0001220703
vt 0.4998779 0.0001220703
vt 0.4998779 0.1248779
vt 0.3751221 0.1248779
vt 0.3751221 0.1251221
vt 0.4998779 0.1251221
vt 0.4998779 0.2498779
vt 0.3751221 0.2498779
vt 0.5001221 0.1251221
vt 0.6248779 0.1251221
vt 0.6248779 0.2498779
vt 0.5001221 0.2498779

# Normal
vn 0 0 -1

# Groups (Count = 2)
g mesh_[00]_[00]
f  1/1/1  2/2/1  3/3/1  4/4/1 
f  2/1/1  5/2/1  6/3/1  3/4/1 
f  5/1/1  7/2/1  8/3/1  6/4/1 
f  7/1/1  9/2/1  10/3/1  8/4/1 
f  9/1/1  11/2/1  12/3/1  10/4/1 
f  11/1/1  13/2/1  14/3/1  12/4/1 
f  13/1/1  15/2/1  16/3/1  14/4/1 
f  15/1/1  17/2/1  18/3/1  16/4/1 
f  17/1/1  19/2/1  20/3/1  18/4/1 
f  19/1/1  21/2/1  22/3/1  20/4/1 
f  21/1/1  23/2/1  24/3/1  22/4/1 
f  23/1/1  25/2/1  26/3/1  24/4/1 
f  25/1/1  27/2/1  28/3/1  26/4/1 
f  27/1/1  29/2/1  30/3/1  28/4/1 
f  29/1/1  31/2/1  32/3/1  30/4/1 
f  31/1/1  33/2/1  34/3/1  32/4/1 
f  35/1/1  36/2/1  2/3/1  1/4/1 
f  36/1/1  37/2/1  5/3/1  2/4/1 
f  37/1/1  38/2/1  7/3/1  5/4/1 
f  38/1/1  39/2/1  9/3/1  7/4/1 
f  39/1/1  40/2/1  11/3/1  9/4/1 
f  40/1/1  41/2/1  13/3/1  11/4/1 
f  41/1/1  42/2/1  15/3/1  13/4/1 
f  42/1/1  43/2/1  17/3/1  15/4/1 
f  43/1/1  44/2/1  19/3/1  17/4/1 
f  44/1/1  45/2/1  21/3/1  19/4/1 
f  45/1/1  46/2/1  23/3/1  21/4/1 
f  46/1/1  47/2/1  25/3/1  23/4/1 
f  47/1/1  48/2/1  27/3/1  25/4/1 
f  48/1/1  49/2/1  29/3/1  27/4/1 
f  49/1/1  50/2/1  31/3/1  29/4/1 
f  50/1/1  51/2/1  33/3/1  31/4/1 
f  52/1/1  53/2/1  36/3/1  35/4/1 
f  53/1/1  54/2/1  37/3/1  36/4/1 
f  54/1/1  55/2/1  38/3/1  37/4/1 
f  55/1/1  56/2/1  39/3/1  38/4/1 
f  56/1/1  57/2/1  40/3/1  39/4/1 
f  57/1/1  58/2/1  41/3/1  40/4/1 
f  58/1/1  59/2/1  42/3/1  41/4/1 
f  59/1/1  60/2/1  43/3/1  42/4/1 
f  60/1/1  61/2/1  44/3/1  43/4/1 
f  61/1/1  62/2/1  45/3/1  44/4/1 
f  62/1/1  63/2/1  46/3/1  45/4/1 
f  63/1/1  64/2/1  47/3/1  46/4/1 
f  64/1/1  65/2/1  48/3/1  47/4/1 
f  65/1/1  66/2/1  49/3/1  48/4/1 
f  66/1/1  67/2/1  50/3/1  49/4/1 
f  67/1/1  68/2/1  51/3/1  50/4/1 
f  69/1/1  70/2/1  53/3/1  52/4/1 
f  70/1/1  71/2/1  54/3/1  53/4/1 
f  71/1/1  72/2/1  55/3/1  54/4/1 
f  72/1/1  73/2/1  56/3/1  55/4/1 
f  73/1/1  74/2/1  57/3/1  56/4/1 
f  74/1/1  75/2/1  58/3/1  57/4/1 
f  75/1/1  76/2/1  59/3/1  58/4/1 
f  76/1/1  77/2/1  60/3/1  59/4/1 
f  77/1/1  78/2/1  61/3/1  60/4/1 
f  78/1/1  79/2/1  62/3/1  61/4/1 
f  79/1/1  80/2/1  63/3/1  62/4/1 
f  80/1/1  81/2/1  64/3/1  63/4/1 
f  81/1/1  82/2/1  65/3/1  64/4/1 
f  82/1/1  83/2/1  66/3/1  65/4/1 
f  83/1/1  84/2/1  67/3/1  66/4/1 
f  84/1/1  85/2/1  68/3/1  67/4/1 
f  86/1/1  87/2/1  70/3/1  69/4/1 
f  87/1/1  88/2/1  71/3/1  70/4/1 
f  88/1/1  89/2/1  72/3/1  71/4/1 
f  89/1/1  90/2/1  73/3/1  72/4/1 
f  90/1/1  91/2/1  74/3/1  73/4/1 
f  91/1/1  92/2/1  75/3/1  74/4/1 
f  92/1/1  93/2/1  76/3/1  75/4/1 
f  93/1/1  94/2/1  77/3/1  76/4/1 
f  94/5/1  95/6/1  78/7/1  77/8/1 
f  95/9/1  96/10/1  79/11/1  78/12/1 
f  96/1/1  97/2/1  80/3/1  79/4/1 
f  97/1/1  98/2/1  81/3/1  80/4/1 
f  98/1/1  99/2/1  82/3/1  81/4/1 
f  99/1/1  100/2/1  83/3/1  82/4/1 
f  100/1/1  101/2/1  84/3/1  83/4/1 
f  101/1/1  102/2/1  85/3/1  84/4/1 
f  103/1/1  104/2/1  87/3/1  86/4/1 
f  104/1/1  105/2/1  88/3/1  87/4/1 
f  105/1/1  106/2/1  89/3/1  88/4/1 
f  106/1/1  107/2/1  90/3/1  89/4/1 
f  107/1/1  108/2/1  91/3/1  90/4/1 
f  108/1/1  109/2/1  92/3/1  91/4/1 
f  109/1/1  110/2/1  93/3/1  92/4/1 
f  110/1/1  111/2/1  94/3/1  93/4/1 
f  111/13/1  112/14/1  95/15/1  94/16/1 
f  112/9/1  113/10/1  96/11/1  95/12/1 
f  113/1/1  114/2/1  97/3/1  96/4/1 
f  114/1/1  115/2/1  98/3/1  97/4/1 
f  115/1/1  116/2/1  99/3/1  98/4/1 
f  116/1/1  117/2/1  100/3/1  99/4/1 
f  117/1/1  118/2/1  101/3/1  100/4/1 
f  118/1/1  119/2/1  102/3/1  101/4/1 
f  120/17/1  121/18/1  104/19/1  103/20/1 
f  121/17/1  122/18/1  105/19/1  104/20/1 
f  122/17/1  123/18/1  106/19/1  105/20/1 
f  123/17/1  124/18/1  107/19/1  106/20/1 
f  124/17/1  125/18/1  108/19/1  107/20/1 
f  125/21/1  126/22/1  109/23/1  108/24/1 
f  126/17/1  127/18/1  110/19/1  109/20/1 
f  127/17/1  128/18/1  111/19/1  110/20/1 
f  128/17/1  129/18/1  112/19/1  111/20/1 
f  129/17/1  130/18/1  113/19/1  112/20/1 
f  130/1/1  131/2/1  114/3/1  113/4/1 
f  131/17/1  132/18/1  115/19/1  114/20/1 
f  132/1/1  133/2/1  116/3/1  115/4/1 
f  133/1/1  134/2/1  117/3/1  116/4/1 
f  134/17/1  135/18/1  118/19/1  117/20/1 
f  135/17/1  136/18/1  119/19/1  118/20/1 
f  137/25/1  138/26/1  121/27/1  120/28/1 
f  138/25/1  139/26/1  122/27/1  121/28/1 
f  139/25/1  140/26/1  123/27/1  122/28/1 
f  140/25/1  141/26/1  124/27/1  123/28/1 
f  141/25/1  142/26/1  125/27/1  124/28/1 
f  142/21/1  143/22/1  126/23/1  125/24/1 
f  143/25/1  144/26/1  127/27/1  126/28/1 
f  144/25/1  145/26/1  128/27/1  127/28/1 
f  145/1/1  146/2/1  129/3/1  128/4/1 
f  146/1/1  147/2/1  130/3/1  129/4/1 
f  147/1/1  148/2/1  131/3/1  130/4/1 
f  148/1/1  149/2/1  132/3/1  131/4/1 
f  149/1/1  150/2/1  133/3/1  132/4/1 
f  150/1/1  151/2/1  134/3/1  133/4/1 
f  151/1/1  152/2/1  135/3/1  134/4/1 
f  152/1/1  153/2/1  136/3/1  135/4/1 
f  154/29/1  155/30/1  138/31/1  137/32/1 
f  155/29/1  156/30/1  139/31/1  138/32/1 
f  156/29/1  157/30/1  140/31/1  139/32/1 
f  157/21/1  158/22/1  141/23/1  140/24/1 
f  158/21/1  159/22/1  142/23/1  141/24/1 
f  159/21/1  160/22/1  143/23/1  142/24/1 
f  160/33/1  161/34/1  144/35/1  143/36/1 
f  161/21/1  162/22/1  145/23/1  144/24/1 
f  162/1/1  163/2/1  146/3/1  145/4/1 
f  163/1/1  164/2/1  147/3/1  146/4/1 
f  164/1/1  165/2/1  148/3/1  147/4/1 
f  165/1/1  166/2/1  149/3/1  148/4/1 
f  166/1/1  167/2/1  150/3/1  149/4/1 
f  167/1/1  168/2/1  151/3/1  150/4/1 
f  168/1/1  169/2/1  152/3/1  151/4/1 
f  169/1/1  170/2/1  153/3/1  152/4/1 
f  171/37/1  172/38/1  155/39/1  154/40/1 
f  172/37/1  173/38/1  156/39/1  155/40/1 
f  173/37/1  174/38/1  157/39/1  156/40/1 
f  174/21/1  175/22/1  158/23/1  157/24/1 
f  175/21/1  176/22/1  159/23/1  158/24/1 
f  176/21/1  177/22/1  160/23/1  159/24/1 
f  177/21/1  178/22/1  161/23/1  160/24/1 
f  178/21/1  179/22/1  162/23/1  161/24/1 
f  179/1/1  180/2/1  163/3/1  162/4/1 
f  180/1/1  181/2/1  164/3/1  163/4/1 
f  181/1/1  182/2/1  165/3/1  164/4/1 
f  182/1/1  183/2/1  166/3/1  165/4/1 
f  183/1/1  184/2/1  167/3/1  166/4/1 
f  184/1/1  185/2/1  168/3/1  167/4/1 
f  185/1/1  186/2/1  169/3/1  168/4/1 
f  186/1/1  187/2/1  170/3/1  169/4/1 
f  188/33/1  189/34/1  172/35/1  171/36/1 
f  189/21/1  190/22/1  173/23/1  172/24/1 
f  190/41/1  191/42/1  174/43/1  173/44/1 
f  191/21/1  192/22/1  175/23/1  174/24/1 
f  192/21/1  193/22/1  176/23/1  175/24/1 
f  193/21/1  194/22/1  177/23/1  176/24/1 
f  194/21/1  195/22/1  178/23/1  177/24/1 
f  195/21/1  196/22/1  179/23/1  178/24/1 
f  196/5/1  197/6/1  180/7/1  179/8/1 
f  197/9/1  198/10/1  181/11/1  180/12/1 
f  198/1/1  199/2/1  182/3/1  181/4/1 
f  199/1/1  200/2/1  183/3/1  182/4/1 
f  200/1/1  201/2/1  184/3/1  183/4/1 
f  201/1/1  202/2/1  185/3/1  184/4/1 
f  202/1/1  203/2/1  186/3/1  185/4/1 
f  203/1/1  204/2/1  187/3/1  186/4/1 
f  205/21/1  206/22/1  189/23/1  188/24/1 
f  206/21/1  207/22/1  190/23/1  189/24/1 
f  207/21/1  208/22/1  191/23/1  190/24/1 
f  208/21/1  209/22/1  192/23/1  191/24/1 
f  209/21/1  210/22/1  193/23/1  192/24/1 
f  210/21/1  211/22/1  194/23/1  193/24/1 
f  211/21/1  212/22/1  195/23/1  194/24/1 
f  212/33/1  213/34/1  196/35/1  195/36/1 
f  213/13/1  214/14/1  197/15/1  196/16/1 
f  214/9/1  215/10/1  198/11/1  197/12/1 
f  215/1/1  216/2/1  199/3/1  198/4/1 
f  216/1/1  217/2/1  200/3/1  199/4/1 
f  217/1/1  218/2/1  201/3/1  200/4/1 
f  218/1/1  219/2/1  202/3/1  201/4/1 
f  219/1/1  220/2/1  203/3/1  202/4/1 
f  220/1/1  221/2/1  204/3/1  203/4/1 
f  222/17/1  223/18/1  206/19/1  205/20/1 
f  223/17/1  224/18/1  207/19/1  206/20/1 
f  224/17/1  225/18/1  208/19/1  207/20/1 
f  225/17/1  226/18/1  209/19/1  208/20/1 
f  226/17/1  227/18/1  210/19/1  209/20/1 
f  227/17/1  228/18/1  211/19/1  210/20/1 
f  228/17/1  229/18/1  212/19/1  211/20/1 
f  229/17/1  230/18/1  213/19/1  212/20/1 
f  230/17/1  231/18/1  214/19/1  213/20/1 
f  231/17/1  232/18/1  215/19/1  214/20/1 
f  232/17/1  233/18/1  216/19/1  215/20/1 
f  233/17/1  234/18/1  217/19/1  216/20/1 
f  234/17/1  235/18/1  218/19/1  217/20/1 
f  235/17/1  236/18/1  219/19/1  218/20/1 
f  236/17/1  237/18/1  220/19/1  219/20/1 
f  237/17/1  238/18/1  221/19/1  220/20/1 
f  239/45/1  240/46/1  223/47/1  222/48/1 
f  240/49/1  241/50/1  224/51/1  223/52/1 
f  241/45/1  242/46/1  225/47/1  224/48/1 
f  242/49/1  243/50/1  226/51/1  225/52/1 
f  243/45/1  244/46/1  227/47/1  226/48/1 
f  244/49/1  245/50/1  228/51/1  227/52/1 
f  245/45/1  246/46/1  229/47/1  228/48/1 
f  246/49/1  247/50/1  230/51/1  229/52/1 
f  247/45/1  248/46/1  231/47/1  230/48/1 
f  248/49/1  249/50/1  232/51/1  231/52/1 
f  249/45/1  250/46/1  233/47/1  232/48/1 
f  250/49/1  251/50/1  234/51/1  233/52/1 
f  251/45/1  252/46/1  235/47/1  234/48/1 
f  252/49/1  253/50/1  236/51/1  235/52/1 
f  253/45/1  254/46/1  237/47/1  236/48/1 
f  254/49/1  255/50/1  238/51/1  237/52/1 
g mesh_[01]_[00]
f  125/53/1  126/54/1  109/55/1  108/56/1 
f  130/53/1  131/54/1  114/55/1  113/56/1 
f  142/53/1  143/54/1  126/55/1  125/56/1 
f  147/53/1  148/54/1  131/55/1  130/56/1 
f  159/53/1  160/54/1  143/55/1  142/56/1 
f  176/53/1  177/54/1  160/55/1  159/56/1 
f  193/53/1  194/54/1  177/55/1  176/56/1 
f  210/53/1  211/54/1  194/55/1  193/56/1 
