# Wavefront OBJ file automatically generated by Tiled2Unity

# Vertices (Count = 272)
v -32 -112 0
v -48 -112 0
v -48 -96 0
v -32 -96 0
v -64 -112 0
v -64 -96 0
v -80 -112 0
v -80 -96 0
v -96 -112 0
v -96 -96 0
v -112 -112 0
v -112 -96 0
v -128 -112 0
v -128 -96 0
v -144 -112 0
v -144 -96 0
v -160 -112 0
v -160 -96 0
v -176 -112 0
v -176 -96 0
v -192 -112 0
v -192 -96 0
v -208 -112 0
v -208 -96 0
v -224 -112 0
v -224 -96 0
v -32 -128 0
v -48 -128 0
v -64 -128 0
v -80 -128 0
v -96 -128 0
v -112 -128 0
v -128 -128 0
v -144 -128 0
v -160 -128 0
v -176 -128 0
v -192 -128 0
v -208 -128 0
v -224 -128 0
v -32 -144 0
v -48 -144 0
v -64 -144 0
v -80 -144 0
v -96 -144 0
v -112 -144 0
v -128 -144 0
v -144 -144 0
v -160 -144 0
v -176 -144 0
v -192 -144 0
v -208 -144 0
v -224 -144 0
v -32 -160 0
v -48 -160 0
v -64 -160 0
v -80 -160 0
v -96 -160 0
v -112 -160 0
v -128 -160 0
v -144 -160 0
v -160 -160 0
v -176 -160 0
v -192 -160 0
v -208 -160 0
v -224 -160 0
v -32 -176 0
v -48 -176 0
v -64 -176 0
v -80 -176 0
v -96 -176 0
v -112 -176 0
v -128 -176 0
v -144 -176 0
v -160 -176 0
v -176 -176 0
v -192 -176 0
v -208 -176 0
v -224 -176 0
v -32 -192 0
v -48 -192 0
v -64 -192 0
v -80 -192 0
v -96 -192 0
v -112 -192 0
v -128 -192 0
v -144 -192 0
v -160 -192 0
v -176 -192 0
v -192 -192 0
v -208 -192 0
v -224 -192 0
v -32 -208 0
v -48 -208 0
v -64 -208 0
v -80 -208 0
v -96 -208 0
v -112 -208 0
v -128 -208 0
v -144 -208 0
v -160 -208 0
v -176 -208 0
v -192 -208 0
v -208 -208 0
v -224 -208 0
v 0 -16 0
v -16 -16 0
v -16 0 0
v 0 0 0
v -32 -16 0
v -32 0 0
v -48 -16 0
v -48 0 0
v -64 -16 0
v -64 0 0
v -80 -16 0
v -80 0 0
v -96 -16 0
v -96 0 0
v -112 -16 0
v -112 0 0
v -128 -16 0
v -128 0 0
v -144 -16 0
v -144 0 0
v -160 -16 0
v -160 0 0
v -176 -16 0
v -176 0 0
v -192 -16 0
v -192 0 0
v -208 -16 0
v -208 0 0
v -224 -16 0
v -224 0 0
v -240 -16 0
v -240 0 0
v -256 -16 0
v -256 0 0
v 0 -32 0
v -16 -32 0
v -32 -32 0
v -48 -32 0
v -64 -32 0
v -80 -32 0
v -96 -32 0
v -112 -32 0
v -128 -32 0
v -144 -32 0
v -160 -32 0
v -176 -32 0
v -192 -32 0
v -208 -32 0
v -224 -32 0
v -240 -32 0
v -256 -32 0
v 0 -48 0
v -16 -48 0
v -32 -48 0
v -48 -48 0
v -64 -48 0
v -80 -48 0
v -96 -48 0
v -112 -48 0
v -128 -48 0
v -144 -48 0
v -160 -48 0
v -176 -48 0
v -192 -48 0
v -208 -48 0
v -224 -48 0
v -240 -48 0
v -256 -48 0
v 0 -64 0
v -16 -64 0
v -32 -64 0
v -48 -64 0
v -64 -64 0
v -80 -64 0
v -96 -64 0
v -112 -64 0
v -128 -64 0
v -144 -64 0
v -160 -64 0
v -176 -64 0
v -192 -64 0
v -208 -64 0
v -224 -64 0
v -240 -64 0
v -256 -64 0
v 0 -80 0
v -16 -80 0
v -32 -80 0
v -48 -80 0
v -64 -80 0
v -80 -80 0
v -96 -80 0
v -112 -80 0
v -128 -80 0
v -144 -80 0
v -160 -80 0
v -176 -80 0
v -192 -80 0
v -208 -80 0
v -224 -80 0
v -240 -80 0
v -256 -80 0
v 0 -96 0
v -16 -96 0
v -240 -96 0
v -256 -96 0
v 0 -112 0
v -16 -112 0
v -240 -112 0
v -256 -112 0
v 0 -128 0
v -16 -128 0
v -240 -128 0
v -256 -128 0
v 0 -144 0
v -16 -144 0
v -240 -144 0
v -256 -144 0
v 0 -160 0
v -16 -160 0
v -240 -160 0
v -256 -160 0
v 0 -176 0
v -16 -176 0
v -240 -176 0
v -256 -176 0
v 0 -192 0
v -16 -192 0
v -240 -192 0
v -256 -192 0
v 0 -208 0
v -16 -208 0
v -240 -208 0
v -256 -208 0
v 0 -224 0
v -16 -224 0
v -32 -224 0
v -48 -224 0
v -64 -224 0
v -80 -224 0
v -96 -224 0
v -112 -224 0
v -128 -224 0
v -144 -224 0
v -160 -224 0
v -176 -224 0
v -192 -224 0
v -208 -224 0
v -224 -224 0
v -240 -224 0
v -256 -224 0
v 0 -240 0
v -16 -240 0
v -32 -240 0
v -48 -240 0
v -64 -240 0
v -80 -240 0
v -96 -240 0
v -112 -240 0
v -128 -240 0
v -144 -240 0
v -160 -240 0
v -176 -240 0
v -192 -240 0
v -208 -240 0
v -224 -240 0
v -240 -240 0
v -256 -240 0

# Texture Coorindates (Count = 200)
vt 0.0001220703 0.7501221
vt 0.1248779 0.7501221
vt 0.1248779 0.8748779
vt 0.0001220703 0.8748779
vt 0.3751221 0.6251221
vt 0.4998779 0.6251221
vt 0.4998779 0.7498779
vt 0.3751221 0.7498779
vt 0.0001220703 0.6251221
vt 0.1248779 0.6251221
vt 0.1248779 0.7498779
vt 0.0001220703 0.7498779
vt 0.3751221 0.5001221
vt 0.4998779 0.5001221
vt 0.4998779 0.6248779
vt 0.3751221 0.6248779
vt 0.0001220703 0.5001221
vt 0.1248779 0.5001221
vt 0.1248779 0.6248779
vt 0.0001220703 0.6248779
vt 0.0001220703 0.8751221
vt 0.1248779 0.8751221
vt 0.1248779 0.9998779
vt 0.0001220703 0.9998779
vt 0.2501221 0.3751221
vt 0.3748779 0.3751221
vt 0.3748779 0.4998779
vt 0.2501221 0.4998779
vt 0.3751221 0.3751221
vt 0.4998779 0.3751221
vt 0.4998779 0.4998779
vt 0.3751221 0.4998779
vt 0.1251221 0.8751221
vt 0.2498779 0.8751221
vt 0.2498779 0.9998779
vt 0.1251221 0.9998779
vt 0.2501221 0.8751221
vt 0.3748779 0.8751221
vt 0.3748779 0.9998779
vt 0.2501221 0.9998779
vt 0.1251221 0.7501221
vt 0.2498779 0.7501221
vt 0.2498779 0.8748779
vt 0.1251221 0.8748779
vt 0.2501221 0.7501221
vt 0.3748779 0.7501221
vt 0.3748779 0.8748779
vt 0.2501221 0.8748779
vt 0.5001221 0.3751221
vt 0.6248779 0.3751221
vt 0.6248779 0.4998779
vt 0.5001221 0.4998779
vt 0.6251221 0.3751221
vt 0.7498779 0.3751221
vt 0.7498779 0.4998779
vt 0.6251221 0.4998779
vt 0.0001220703 0.3751221
vt 0.1248779 0.3751221
vt 0.1248779 0.4998779
vt 0.0001220703 0.4998779
vt 0.1251221 0.3751221
vt 0.2498779 0.3751221
vt 0.2498779 0.4998779
vt 0.1251221 0.4998779
vt 0.0001220703 0.2501221
vt 0.1248779 0.2501221
vt 0.1248779 0.3748779
vt 0.0001220703 0.3748779
vt 0.1251221 0.2501221
vt 0.2498779 0.2501221
vt 0.2498779 0.3748779
vt 0.1251221 0.3748779
vt 0.7501221 0.8751221
vt 0.8748779 0.8751221
vt 0.8748779 0.9998779
vt 0.7501221 0.9998779
vt 0.8751221 0.8751221
vt 0.9998779 0.8751221
vt 0.9998779 0.9998779
vt 0.8751221 0.9998779
vt 0.0001220703 0.1251221
vt 0.1248779 0.1251221
vt 0.1248779 0.2498779
vt 0.0001220703 0.2498779
vt 0.1251221 0.1251221
vt 0.2498779 0.1251221
vt 0.2498779 0.2498779
vt 0.1251221 0.2498779
vt 0.3751221 0.8751221
vt 0.4998779 0.8751221
vt 0.4998779 0.9998779
vt 0.3751221 0.9998779
vt 0.5001221 0.8751221
vt 0.6248779 0.8751221
vt 0.6248779 0.9998779
vt 0.5001221 0.9998779
vt 0.6251221 0.8751221
vt 0.7498779 0.8751221
vt 0.7498779 0.9998779
vt 0.6251221 0.9998779
vt 0.7501221 0.7501221
vt 0.8748779 0.7501221
vt 0.8748779 0.8748779
vt 0.7501221 0.8748779
vt 0.8751221 0.7501221
vt 0.9998779 0.7501221
vt 0.9998779 0.8748779
vt 0.8751221 0.8748779
vt 0.3751221 0.7501221
vt 0.4998779 0.7501221
vt 0.4998779 0.8748779
vt 0.3751221 0.8748779
vt 0.5001221 0.7501221
vt 0.6248779 0.7501221
vt 0.6248779 0.8748779
vt 0.5001221 0.8748779
vt 0.6251221 0.7501221
vt 0.7498779 0.7501221
vt 0.7498779 0.8748779
vt 0.6251221 0.8748779
vt 0.7501221 0.6251221
vt 0.8748779 0.6251221
vt 0.8748779 0.7498779
vt 0.7501221 0.7498779
vt 0.8751221 0.6251221
vt 0.9998779 0.6251221
vt 0.9998779 0.7498779
vt 0.8751221 0.7498779
vt 0.1251221 0.6251221
vt 0.2498779 0.6251221
vt 0.2498779 0.7498779
vt 0.1251221 0.7498779
vt 0.2501221 0.6251221
vt 0.3748779 0.6251221
vt 0.3748779 0.7498779
vt 0.2501221 0.7498779
vt 0.1251221 0.5001221
vt 0.2498779 0.5001221
vt 0.2498779 0.6248779
vt 0.1251221 0.6248779
vt 0.2501221 0.5001221
vt 0.3748779 0.5001221
vt 0.3748779 0.6248779
vt 0.2501221 0.6248779
vt 0.5001221 0.2501221
vt 0.6248779 0.2501221
vt 0.6248779 0.3748779
vt 0.5001221 0.3748779
vt 0.6251221 0.2501221
vt 0.7498779 0.2501221
vt 0.7498779 0.3748779
vt 0.6251221 0.3748779
vt 0.5001221 0.1251221
vt 0.6248779 0.1251221
vt 0.6248779 0.2498779
vt 0.5001221 0.2498779
vt 0.6251221 0.1251221
vt 0.7498779 0.1251221
vt 0.7498779 0.2498779
vt 0.6251221 0.2498779
vt 0.7501221 0.5001221
vt 0.8748779 0.5001221
vt 0.8748779 0.6248779
vt 0.7501221 0.6248779
vt 0.8751221 0.5001221
vt 0.9998779 0.5001221
vt 0.9998779 0.6248779
vt 0.8751221 0.6248779
vt 0.5001221 0.6251221
vt 0.6248779 0.6251221
vt 0.6248779 0.7498779
vt 0.5001221 0.7498779
vt 0.6251221 0.6251221
vt 0.7498779 0.6251221
vt 0.7498779 0.7498779
vt 0.6251221 0.7498779
vt 0.5001221 0.5001221
vt 0.6248779 0.5001221
vt 0.6248779 0.6248779
vt 0.5001221 0.6248779
vt 0.6251221 0.5001221
vt 0.7498779 0.5001221
vt 0.7498779 0.6248779
vt 0.6251221 0.6248779
vt 0.2501221 0.2501221
vt 0.3748779 0.2501221
vt 0.3748779 0.3748779
vt 0.2501221 0.3748779
vt 0.3751221 0.2501221
vt 0.4998779 0.2501221
vt 0.4998779 0.3748779
vt 0.3751221 0.3748779
vt 0.2501221 0.1251221
vt 0.3748779 0.1251221
vt 0.3748779 0.2498779
vt 0.2501221 0.2498779
vt 0.3751221 0.1251221
vt 0.4998779 0.1251221
vt 0.4998779 0.2498779
vt 0.3751221 0.2498779

# Normal
vn 0 0 -1

# Groups (Count = 4)
g mesh_[00]_[00]
f  1/1/1  2/2/1  3/3/1  4/4/1 
f  2/1/1  5/2/1  6/3/1  3/4/1 
f  5/1/1  7/2/1  8/3/1  6/4/1 
f  7/1/1  9/2/1  10/3/1  8/4/1 
f  9/1/1  11/2/1  12/3/1  10/4/1 
f  11/1/1  13/2/1  14/3/1  12/4/1 
f  13/1/1  15/2/1  16/3/1  14/4/1 
f  15/1/1  17/2/1  18/3/1  16/4/1 
f  17/1/1  19/2/1  20/3/1  18/4/1 
f  19/1/1  21/2/1  22/3/1  20/4/1 
f  21/1/1  23/2/1  24/3/1  22/4/1 
f  23/1/1  25/2/1  26/3/1  24/4/1 
f  27/5/1  28/6/1  2/7/1  1/8/1 
f  28/1/1  29/2/1  5/3/1  2/4/1 
f  29/1/1  30/2/1  7/3/1  5/4/1 
f  30/1/1  31/2/1  9/3/1  7/4/1 
f  31/1/1  32/2/1  11/3/1  9/4/1 
f  32/1/1  33/2/1  13/3/1  11/4/1 
f  33/1/1  34/2/1  15/3/1  13/4/1 
f  34/1/1  35/2/1  17/3/1  15/4/1 
f  35/1/1  36/2/1  19/3/1  17/4/1 
f  36/1/1  37/2/1  21/3/1  19/4/1 
f  37/1/1  38/2/1  23/3/1  21/4/1 
f  38/9/1  39/10/1  25/11/1  23/12/1 
f  40/13/1  41/14/1  28/15/1  27/16/1 
f  41/1/1  42/2/1  29/3/1  28/4/1 
f  42/1/1  43/2/1  30/3/1  29/4/1 
f  43/1/1  44/2/1  31/3/1  30/4/1 
f  44/1/1  45/2/1  32/3/1  31/4/1 
f  45/1/1  46/2/1  33/3/1  32/4/1 
f  46/1/1  47/2/1  34/3/1  33/4/1 
f  47/1/1  48/2/1  35/3/1  34/4/1 
f  48/1/1  49/2/1  36/3/1  35/4/1 
f  49/1/1  50/2/1  37/3/1  36/4/1 
f  50/1/1  51/2/1  38/3/1  37/4/1 
f  51/17/1  52/18/1  39/19/1  38/20/1 
f  53/1/1  54/2/1  41/3/1  40/4/1 
f  54/1/1  55/2/1  42/3/1  41/4/1 
f  55/1/1  56/2/1  43/3/1  42/4/1 
f  56/1/1  57/2/1  44/3/1  43/4/1 
f  57/1/1  58/2/1  45/3/1  44/4/1 
f  58/1/1  59/2/1  46/3/1  45/4/1 
f  59/1/1  60/2/1  47/3/1  46/4/1 
f  60/1/1  61/2/1  48/3/1  47/4/1 
f  61/1/1  62/2/1  49/3/1  48/4/1 
f  62/1/1  63/2/1  50/3/1  49/4/1 
f  63/1/1  64/2/1  51/3/1  50/4/1 
f  64/1/1  65/2/1  52/3/1  51/4/1 
f  66/1/1  67/2/1  54/3/1  53/4/1 
f  67/1/1  68/2/1  55/3/1  54/4/1 
f  68/1/1  69/2/1  56/3/1  55/4/1 
f  69/1/1  70/2/1  57/3/1  56/4/1 
f  70/1/1  71/2/1  58/3/1  57/4/1 
f  71/1/1  72/2/1  59/3/1  58/4/1 
f  72/1/1  73/2/1  60/3/1  59/4/1 
f  73/1/1  74/2/1  61/3/1  60/4/1 
f  74/1/1  75/2/1  62/3/1  61/4/1 
f  75/1/1  76/2/1  63/3/1  62/4/1 
f  76/1/1  77/2/1  64/3/1  63/4/1 
f  77/1/1  78/2/1  65/3/1  64/4/1 
f  79/1/1  80/2/1  67/3/1  66/4/1 
f  80/1/1  81/2/1  68/3/1  67/4/1 
f  81/1/1  82/2/1  69/3/1  68/4/1 
f  82/1/1  83/2/1  70/3/1  69/4/1 
f  83/1/1  84/2/1  71/3/1  70/4/1 
f  84/1/1  85/2/1  72/3/1  71/4/1 
f  85/1/1  86/2/1  73/3/1  72/4/1 
f  86/1/1  87/2/1  74/3/1  73/4/1 
f  87/1/1  88/2/1  75/3/1  74/4/1 
f  88/1/1  89/2/1  76/3/1  75/4/1 
f  89/1/1  90/2/1  77/3/1  76/4/1 
f  90/1/1  91/2/1  78/3/1  77/4/1 
f  92/1/1  93/2/1  80/3/1  79/4/1 
f  93/1/1  94/2/1  81/3/1  80/4/1 
f  94/1/1  95/2/1  82/3/1  81/4/1 
f  95/1/1  96/2/1  83/3/1  82/4/1 
f  96/1/1  97/2/1  84/3/1  83/4/1 
f  97/1/1  98/2/1  85/3/1  84/4/1 
f  98/1/1  99/2/1  86/3/1  85/4/1 
f  99/1/1  100/2/1  87/3/1  86/4/1 
f  100/1/1  101/2/1  88/3/1  87/4/1 
f  101/1/1  102/2/1  89/3/1  88/4/1 
f  102/1/1  103/2/1  90/3/1  89/4/1 
f  103/1/1  104/2/1  91/3/1  90/4/1 
g mesh_[01]_[00]
f  105/21/1  106/22/1  107/23/1  108/24/1 
f  106/21/1  109/22/1  110/23/1  107/24/1 
f  109/21/1  111/22/1  112/23/1  110/24/1 
f  111/21/1  113/22/1  114/23/1  112/24/1 
f  113/21/1  115/22/1  116/23/1  114/24/1 
f  115/21/1  117/22/1  118/23/1  116/24/1 
f  117/21/1  119/22/1  120/23/1  118/24/1 
f  119/21/1  121/22/1  122/23/1  120/24/1 
f  121/21/1  123/22/1  124/23/1  122/24/1 
f  123/21/1  125/22/1  126/23/1  124/24/1 
f  125/21/1  127/22/1  128/23/1  126/24/1 
f  127/21/1  129/22/1  130/23/1  128/24/1 
f  129/21/1  131/22/1  132/23/1  130/24/1 
f  131/21/1  133/22/1  134/23/1  132/24/1 
f  133/21/1  135/22/1  136/23/1  134/24/1 
f  135/21/1  137/22/1  138/23/1  136/24/1 
f  139/21/1  140/22/1  106/23/1  105/24/1 
f  140/21/1  141/22/1  109/23/1  106/24/1 
f  141/21/1  142/22/1  111/23/1  109/24/1 
f  142/21/1  143/22/1  113/23/1  111/24/1 
f  143/21/1  144/22/1  115/23/1  113/24/1 
f  144/21/1  145/22/1  117/23/1  115/24/1 
f  145/21/1  146/22/1  119/23/1  117/24/1 
f  146/21/1  147/22/1  121/23/1  119/24/1 
f  147/21/1  148/22/1  123/23/1  121/24/1 
f  148/21/1  149/22/1  125/23/1  123/24/1 
f  149/21/1  150/22/1  127/23/1  125/24/1 
f  150/21/1  151/22/1  129/23/1  127/24/1 
f  151/21/1  152/22/1  131/23/1  129/24/1 
f  152/21/1  153/22/1  133/23/1  131/24/1 
f  153/21/1  154/22/1  135/23/1  133/24/1 
f  154/21/1  155/22/1  137/23/1  135/24/1 
f  156/21/1  157/22/1  140/23/1  139/24/1 
f  157/21/1  158/22/1  141/23/1  140/24/1 
f  158/21/1  159/22/1  142/23/1  141/24/1 
f  159/25/1  160/26/1  143/27/1  142/28/1 
f  160/29/1  161/30/1  144/31/1  143/32/1 
f  161/21/1  162/22/1  145/23/1  144/24/1 
f  162/21/1  163/22/1  146/23/1  145/24/1 
f  163/25/1  164/26/1  147/27/1  146/28/1 
f  164/29/1  165/30/1  148/31/1  147/32/1 
f  165/21/1  166/22/1  149/23/1  148/24/1 
f  166/21/1  167/22/1  150/23/1  149/24/1 
f  167/25/1  168/26/1  151/27/1  150/28/1 
f  168/29/1  169/30/1  152/31/1  151/32/1 
f  169/21/1  170/22/1  153/23/1  152/24/1 
f  170/21/1  171/22/1  154/23/1  153/24/1 
f  171/21/1  172/22/1  155/23/1  154/24/1 
f  173/21/1  174/22/1  157/23/1  156/24/1 
f  174/21/1  175/22/1  158/23/1  157/24/1 
f  175/21/1  176/22/1  159/23/1  158/24/1 
f  176/21/1  177/22/1  160/23/1  159/24/1 
f  177/21/1  178/22/1  161/23/1  160/24/1 
f  178/21/1  179/22/1  162/23/1  161/24/1 
f  179/21/1  180/22/1  163/23/1  162/24/1 
f  180/21/1  181/22/1  164/23/1  163/24/1 
f  181/21/1  182/22/1  165/23/1  164/24/1 
f  182/21/1  183/22/1  166/23/1  165/24/1 
f  183/21/1  184/22/1  167/23/1  166/24/1 
f  184/21/1  185/22/1  168/23/1  167/24/1 
f  185/21/1  186/22/1  169/23/1  168/24/1 
f  186/21/1  187/22/1  170/23/1  169/24/1 
f  187/21/1  188/22/1  171/23/1  170/24/1 
f  188/21/1  189/22/1  172/23/1  171/24/1 
f  190/21/1  191/22/1  174/23/1  173/24/1 
f  191/21/1  192/22/1  175/23/1  174/24/1 
f  192/21/1  193/22/1  176/23/1  175/24/1 
f  193/21/1  194/22/1  177/23/1  176/24/1 
f  194/21/1  195/22/1  178/23/1  177/24/1 
f  195/21/1  196/22/1  179/23/1  178/24/1 
f  196/21/1  197/22/1  180/23/1  179/24/1 
f  197/21/1  198/22/1  181/23/1  180/24/1 
f  198/21/1  199/22/1  182/23/1  181/24/1 
f  199/21/1  200/22/1  183/23/1  182/24/1 
f  200/21/1  201/22/1  184/23/1  183/24/1 
f  201/21/1  202/22/1  185/23/1  184/24/1 
f  202/21/1  203/22/1  186/23/1  185/24/1 
f  203/21/1  204/22/1  187/23/1  186/24/1 
f  204/21/1  205/22/1  188/23/1  187/24/1 
f  205/21/1  206/22/1  189/23/1  188/24/1 
f  207/33/1  208/34/1  191/35/1  190/36/1 
f  208/37/1  4/38/1  192/39/1  191/40/1 
f  4/21/1  3/22/1  193/23/1  192/24/1 
f  3/21/1  6/22/1  194/23/1  193/24/1 
f  6/21/1  8/22/1  195/23/1  194/24/1 
f  8/21/1  10/22/1  196/23/1  195/24/1 
f  10/21/1  12/22/1  197/23/1  196/24/1 
f  12/21/1  14/22/1  198/23/1  197/24/1 
f  14/21/1  16/22/1  199/23/1  198/24/1 
f  16/21/1  18/22/1  200/23/1  199/24/1 
f  18/21/1  20/22/1  201/23/1  200/24/1 
f  20/21/1  22/22/1  202/23/1  201/24/1 
f  22/21/1  24/22/1  203/23/1  202/24/1 
f  24/21/1  26/22/1  204/23/1  203/24/1 
f  26/33/1  209/34/1  205/35/1  204/36/1 
f  209/37/1  210/38/1  206/39/1  205/40/1 
f  211/41/1  212/42/1  208/43/1  207/44/1 
f  212/45/1  1/46/1  4/47/1  208/48/1 
f  25/41/1  213/42/1  209/43/1  26/44/1 
f  213/45/1  214/46/1  210/47/1  209/48/1 
f  215/1/1  216/2/1  212/3/1  211/4/1 
f  216/1/1  27/2/1  1/3/1  212/4/1 
f  39/1/1  217/2/1  213/3/1  25/4/1 
f  217/1/1  218/2/1  214/3/1  213/4/1 
f  219/1/1  220/2/1  216/3/1  215/4/1 
f  220/1/1  40/2/1  27/3/1  216/4/1 
f  52/1/1  221/2/1  217/3/1  39/4/1 
f  221/1/1  222/2/1  218/3/1  217/4/1 
f  223/33/1  224/34/1  220/35/1  219/36/1 
f  224/37/1  53/38/1  40/39/1  220/40/1 
f  65/33/1  225/34/1  221/35/1  52/36/1 
f  225/37/1  226/38/1  222/39/1  221/40/1 
f  227/49/1  228/50/1  224/51/1  223/52/1 
f  228/53/1  66/54/1  53/55/1  224/56/1 
f  78/49/1  229/50/1  225/51/1  65/52/1 
f  229/53/1  230/54/1  226/55/1  225/56/1 
f  231/49/1  232/50/1  228/51/1  227/52/1 
f  232/53/1  79/54/1  66/55/1  228/56/1 
f  79/57/1  80/58/1  67/59/1  66/60/1 
f  80/61/1  81/62/1  68/63/1  67/64/1 
f  89/57/1  90/58/1  77/59/1  76/60/1 
f  90/61/1  91/62/1  78/63/1  77/64/1 
f  91/49/1  233/50/1  229/51/1  78/52/1 
f  233/53/1  234/54/1  230/55/1  229/56/1 
f  235/41/1  236/42/1  232/43/1  231/44/1 
f  236/45/1  92/46/1  79/47/1  232/48/1 
f  92/65/1  93/66/1  80/67/1  79/68/1 
f  93/69/1  94/70/1  81/71/1  80/72/1 
f  102/65/1  103/66/1  90/67/1  89/68/1 
f  103/69/1  104/70/1  91/71/1  90/72/1 
f  104/41/1  237/42/1  233/43/1  91/44/1 
f  237/45/1  238/46/1  234/47/1  233/48/1 
f  239/73/1  240/74/1  236/75/1  235/76/1 
f  240/77/1  241/78/1  92/79/1  236/80/1 
f  241/81/1  242/82/1  93/83/1  92/84/1 
f  242/85/1  243/86/1  94/87/1  93/88/1 
f  243/89/1  244/90/1  95/91/1  94/92/1 
f  244/89/1  245/90/1  96/91/1  95/92/1 
f  245/89/1  246/90/1  97/91/1  96/92/1 
f  246/89/1  247/90/1  98/91/1  97/92/1 
f  247/89/1  248/90/1  99/91/1  98/92/1 
f  248/89/1  249/90/1  100/91/1  99/92/1 
f  249/89/1  250/90/1  101/91/1  100/92/1 
f  250/89/1  251/90/1  102/91/1  101/92/1 
f  251/81/1  252/82/1  103/83/1  102/84/1 
f  252/85/1  253/86/1  104/87/1  103/88/1 
f  253/93/1  254/94/1  237/95/1  104/96/1 
f  254/97/1  255/98/1  238/99/1  237/100/1 
f  256/101/1  257/102/1  240/103/1  239/104/1 
f  257/105/1  258/106/1  241/107/1  240/108/1 
f  258/109/1  259/110/1  242/111/1  241/112/1 
f  259/109/1  260/110/1  243/111/1  242/112/1 
f  260/109/1  261/110/1  244/111/1  243/112/1 
f  261/109/1  262/110/1  245/111/1  244/112/1 
f  262/109/1  263/110/1  246/111/1  245/112/1 
f  263/109/1  264/110/1  247/111/1  246/112/1 
f  264/109/1  265/110/1  248/111/1  247/112/1 
f  265/109/1  266/110/1  249/111/1  248/112/1 
f  266/109/1  267/110/1  250/111/1  249/112/1 
f  267/109/1  268/110/1  251/111/1  250/112/1 
f  268/109/1  269/110/1  252/111/1  251/112/1 
f  269/109/1  270/110/1  253/111/1  252/112/1 
f  270/113/1  271/114/1  254/115/1  253/116/1 
f  271/117/1  272/118/1  255/119/1  254/120/1 
g mesh_[02]_[00]
f  1/121/1  2/122/1  3/123/1  4/124/1 
f  2/125/1  5/126/1  6/127/1  3/128/1 
f  5/121/1  7/122/1  8/123/1  6/124/1 
f  7/125/1  9/126/1  10/127/1  8/128/1 
f  9/121/1  11/122/1  12/123/1  10/124/1 
f  11/125/1  13/126/1  14/127/1  12/128/1 
f  13/121/1  15/122/1  16/123/1  14/124/1 
f  15/125/1  17/126/1  18/127/1  16/128/1 
f  17/121/1  19/122/1  20/123/1  18/124/1 
f  19/125/1  21/126/1  22/127/1  20/128/1 
f  21/121/1  23/122/1  24/123/1  22/124/1 
f  23/125/1  25/126/1  26/127/1  24/128/1 
f  215/129/1  216/130/1  212/131/1  211/132/1 
f  216/133/1  27/134/1  1/135/1  212/136/1 
f  39/129/1  217/130/1  213/131/1  25/132/1 
f  217/133/1  218/134/1  214/135/1  213/136/1 
f  219/137/1  220/138/1  216/139/1  215/140/1 
f  220/141/1  40/142/1  27/143/1  216/144/1 
f  52/137/1  221/138/1  217/139/1  39/140/1 
f  221/141/1  222/142/1  218/143/1  217/144/1 
f  53/145/1  54/146/1  41/147/1  40/148/1 
f  54/149/1  55/150/1  42/151/1  41/152/1 
f  63/145/1  64/146/1  51/147/1  50/148/1 
f  64/149/1  65/150/1  52/151/1  51/152/1 
f  66/153/1  67/154/1  54/155/1  53/156/1 
f  67/157/1  68/158/1  55/159/1  54/160/1 
f  76/153/1  77/154/1  64/155/1  63/156/1 
f  77/157/1  78/158/1  65/159/1  64/160/1 
g mesh_[03]_[00]
f  1/161/1  2/162/1  3/163/1  4/164/1 
f  2/165/1  5/166/1  6/167/1  3/168/1 
f  5/161/1  7/162/1  8/163/1  6/164/1 
f  7/165/1  9/166/1  10/167/1  8/168/1 
f  9/161/1  11/162/1  12/163/1  10/164/1 
f  11/165/1  13/166/1  14/167/1  12/168/1 
f  13/161/1  15/162/1  16/163/1  14/164/1 
f  15/165/1  17/166/1  18/167/1  16/168/1 
f  17/161/1  19/162/1  20/163/1  18/164/1 
f  19/165/1  21/166/1  22/167/1  20/168/1 
f  21/161/1  23/162/1  24/163/1  22/164/1 
f  23/165/1  25/166/1  26/167/1  24/168/1 
f  215/169/1  216/170/1  212/171/1  211/172/1 
f  216/173/1  27/174/1  1/175/1  212/176/1 
f  39/169/1  217/170/1  213/171/1  25/172/1 
f  217/173/1  218/174/1  214/175/1  213/176/1 
f  219/177/1  220/178/1  216/179/1  215/180/1 
f  220/181/1  40/182/1  27/183/1  216/184/1 
f  52/177/1  221/178/1  217/179/1  39/180/1 
f  221/181/1  222/182/1  218/183/1  217/184/1 
f  53/185/1  54/186/1  41/187/1  40/188/1 
f  54/189/1  55/190/1  42/191/1  41/192/1 
f  63/185/1  64/186/1  51/187/1  50/188/1 
f  64/189/1  65/190/1  52/191/1  51/192/1 
f  66/193/1  67/194/1  54/195/1  53/196/1 
f  67/197/1  68/198/1  55/199/1  54/200/1 
f  76/193/1  77/194/1  64/195/1  63/196/1 
f  77/197/1  78/198/1  65/199/1  64/200/1 
