# Wavefront OBJ file automatically generated by Tiled2Unity

# Vertices (Count = 255)
v 0 -16 0
v -16 -16 0
v -16 0 0
v 0 0 0
v -32 -16 0
v -32 0 0
v -48 -16 0
v -48 0 0
v -64 -16 0
v -64 0 0
v -80 -16 0
v -80 0 0
v -96 -16 0
v -96 0 0
v -112 -16 0
v -112 0 0
v -128 -16 0
v -128 0 0
v -144 -16 0
v -144 0 0
v -160 -16 0
v -160 0 0
v -176 -16 0
v -176 0 0
v -192 -16 0
v -192 0 0
v -208 -16 0
v -208 0 0
v -224 -16 0
v -224 0 0
v -240 -16 0
v -240 0 0
v -256 -16 0
v -256 0 0
v 0 -32 0
v -16 -32 0
v -32 -32 0
v -48 -32 0
v -64 -32 0
v -80 -32 0
v -96 -32 0
v -112 -32 0
v -128 -32 0
v -144 -32 0
v -160 -32 0
v -176 -32 0
v -192 -32 0
v -208 -32 0
v -224 -32 0
v -240 -32 0
v -256 -32 0
v 0 -48 0
v -16 -48 0
v -32 -48 0
v -48 -48 0
v -64 -48 0
v -80 -48 0
v -96 -48 0
v -112 -48 0
v -128 -48 0
v -144 -48 0
v -160 -48 0
v -176 -48 0
v -192 -48 0
v -208 -48 0
v -224 -48 0
v -240 -48 0
v -256 -48 0
v 0 -64 0
v -16 -64 0
v -32 -64 0
v -48 -64 0
v -64 -64 0
v -80 -64 0
v -96 -64 0
v -112 -64 0
v -128 -64 0
v -144 -64 0
v -160 -64 0
v -176 -64 0
v -192 -64 0
v -208 -64 0
v -224 -64 0
v -240 -64 0
v -256 -64 0
v 0 -80 0
v -16 -80 0
v -32 -80 0
v -48 -80 0
v -64 -80 0
v -80 -80 0
v -96 -80 0
v -112 -80 0
v -128 -80 0
v -144 -80 0
v -160 -80 0
v -176 -80 0
v -192 -80 0
v -208 -80 0
v -224 -80 0
v -240 -80 0
v -256 -80 0
v 0 -96 0
v -16 -96 0
v -32 -96 0
v -48 -96 0
v -64 -96 0
v -80 -96 0
v -96 -96 0
v -112 -96 0
v -128 -96 0
v -144 -96 0
v -160 -96 0
v -176 -96 0
v -192 -96 0
v -208 -96 0
v -224 -96 0
v -240 -96 0
v -256 -96 0
v 0 -112 0
v -16 -112 0
v -32 -112 0
v -48 -112 0
v -64 -112 0
v -80 -112 0
v -96 -112 0
v -112 -112 0
v -128 -112 0
v -144 -112 0
v -160 -112 0
v -176 -112 0
v -192 -112 0
v -208 -112 0
v -224 -112 0
v -240 -112 0
v -256 -112 0
v 0 -128 0
v -16 -128 0
v -32 -128 0
v -48 -128 0
v -64 -128 0
v -80 -128 0
v -96 -128 0
v -112 -128 0
v -128 -128 0
v -144 -128 0
v -160 -128 0
v -176 -128 0
v -192 -128 0
v -208 -128 0
v -224 -128 0
v -240 -128 0
v -256 -128 0
v 0 -144 0
v -16 -144 0
v -32 -144 0
v -48 -144 0
v -64 -144 0
v -80 -144 0
v -96 -144 0
v -112 -144 0
v -128 -144 0
v -144 -144 0
v -160 -144 0
v -176 -144 0
v -192 -144 0
v -208 -144 0
v -224 -144 0
v -240 -144 0
v -256 -144 0
v 0 -160 0
v -16 -160 0
v -32 -160 0
v -48 -160 0
v -64 -160 0
v -80 -160 0
v -96 -160 0
v -112 -160 0
v -128 -160 0
v -144 -160 0
v -160 -160 0
v -176 -160 0
v -192 -160 0
v -208 -160 0
v -224 -160 0
v -240 -160 0
v -256 -160 0
v 0 -176 0
v -16 -176 0
v -32 -176 0
v -48 -176 0
v -64 -176 0
v -80 -176 0
v -96 -176 0
v -112 -176 0
v -128 -176 0
v -144 -176 0
v -160 -176 0
v -176 -176 0
v -192 -176 0
v -208 -176 0
v -224 -176 0
v -240 -176 0
v -256 -176 0
v 0 -192 0
v -16 -192 0
v -32 -192 0
v -48 -192 0
v -64 -192 0
v -80 -192 0
v -96 -192 0
v -112 -192 0
v -128 -192 0
v -144 -192 0
v -160 -192 0
v -176 -192 0
v -192 -192 0
v -208 -192 0
v -224 -192 0
v -240 -192 0
v -256 -192 0
v 0 -208 0
v -16 -208 0
v -32 -208 0
v -48 -208 0
v -64 -208 0
v -80 -208 0
v -96 -208 0
v -112 -208 0
v -128 -208 0
v -144 -208 0
v -160 -208 0
v -176 -208 0
v -192 -208 0
v -208 -208 0
v -224 -208 0
v -240 -208 0
v -256 -208 0
v 0 -224 0
v -16 -224 0
v -32 -224 0
v -48 -224 0
v -64 -224 0
v -80 -224 0
v -96 -224 0
v -112 -224 0
v -128 -224 0
v -144 -224 0
v -160 -224 0
v -176 -224 0
v -192 -224 0
v -208 -224 0
v -224 -224 0
v -240 -224 0
v -256 -224 0

# Texture Coorindates (Count = 104)
vt 0.0001220703 0.5001221
vt 0.25 0.5001221
vt 0.25 0.625
vt 0.0001220703 0.625
vt 0.5001221 0.5001221
vt 0.75 0.5001221
vt 0.75 0.625
vt 0.5001221 0.625
vt 0.0001220703 0.8751221
vt 0.25 0.8751221
vt 0.25 1
vt 0.0001220703 1
vt 0.2501221 0.8751221
vt 0.5 0.8751221
vt 0.5 1
vt 0.2501221 1
vt 0.0001220703 0.7501221
vt 0.25 0.7501221
vt 0.25 0.875
vt 0.0001220703 0.875
vt 0.2501221 0.7501221
vt 0.5 0.7501221
vt 0.5 0.875
vt 0.2501221 0.875
vt 0.5001221 0.7501221
vt 0.75 0.7501221
vt 0.75 0.875
vt 0.5001221 0.875
vt 0.0001220703 0.3751221
vt 0.25 0.3751221
vt 0.25 0.5
vt 0.0001220703 0.5
vt 0.7501221 0.8751221
vt 1 0.8751221
vt 1 1
vt 0.7501221 1
vt 0.5001221 0.6251221
vt 0.75 0.6251221
vt 0.75 0.75
vt 0.5001221 0.75
vt 0.7501221 0.6251221
vt 1 0.6251221
vt 1 0.75
vt 0.7501221 0.75
vt 0.7501221 0.5001221
vt 1 0.5001221
vt 1 0.625
vt 0.7501221 0.625
vt 0.7501221 0.7501221
vt 1 0.7501221
vt 1 0.875
vt 0.7501221 0.875
vt 0.0001220703 0.6251221
vt 0.25 0.6251221
vt 0.25 0.75
vt 0.0001220703 0.75
vt 0.2501221 0.6251221
vt 0.5 0.6251221
vt 0.5 0.75
vt 0.2501221 0.75
vt 0.5001221 0.8751221
vt 0.75 0.8751221
vt 0.75 1
vt 0.5001221 1
vt 0.2501221 0.5001221
vt 0.5 0.5001221
vt 0.5 0.625
vt 0.2501221 0.625
vt 0.2501221 0.3751221
vt 0.5 0.3751221
vt 0.5 0.5
vt 0.2501221 0.5
vt 0.0001220703 0.2501221
vt 0.25 0.2501221
vt 0.25 0.375
vt 0.0001220703 0.375
vt 0.2501221 0.2501221
vt 0.5 0.2501221
vt 0.5 0.375
vt 0.2501221 0.375
vt 0.0001220703 0.1251221
vt 0.25 0.1251221
vt 0.25 0.25
vt 0.0001220703 0.25
vt 0.2501221 0.1251221
vt 0.5 0.1251221
vt 0.5 0.25
vt 0.2501221 0.25
vt 0.0001220703 0.0001220703
vt 0.25 0.0001220703
vt 0.25 0.125
vt 0.0001220703 0.125
vt 0.2501221 0.0001220703
vt 0.5 0.0001220703
vt 0.5 0.125
vt 0.2501221 0.125
vt 0.5001221 0.3751221
vt 0.75 0.3751221
vt 0.75 0.5
vt 0.5001221 0.5
vt 0.7501221 0.3751221
vt 1 0.3751221
vt 1 0.5
vt 0.7501221 0.5

# Normal
vn 0 0 -1

# Groups (Count = 1)
g mesh_[00]_[00]
f  1/1/1  2/2/1  3/3/1  4/4/1 
f  2/5/1  5/6/1  6/7/1  3/8/1 
f  5/5/1  7/6/1  8/7/1  6/8/1 
f  7/5/1  9/6/1  10/7/1  8/8/1 
f  9/5/1  11/6/1  12/7/1  10/8/1 
f  11/5/1  13/6/1  14/7/1  12/8/1 
f  13/5/1  15/6/1  16/7/1  14/8/1 
f  15/5/1  17/6/1  18/7/1  16/8/1 
f  17/5/1  19/6/1  20/7/1  18/8/1 
f  19/5/1  21/6/1  22/7/1  20/8/1 
f  21/5/1  23/6/1  24/7/1  22/8/1 
f  23/5/1  25/6/1  26/7/1  24/8/1 
f  25/5/1  27/6/1  28/7/1  26/8/1 
f  27/5/1  29/6/1  30/7/1  28/8/1 
f  29/5/1  31/6/1  32/7/1  30/8/1 
f  31/1/1  33/2/1  34/3/1  32/4/1 
f  35/1/1  36/2/1  2/3/1  1/4/1 
f  36/9/1  37/10/1  5/11/1  2/12/1 
f  37/9/1  38/10/1  7/11/1  5/12/1 
f  38/9/1  39/10/1  9/11/1  7/12/1 
f  39/9/1  40/10/1  11/11/1  9/12/1 
f  40/13/1  41/14/1  13/15/1  11/16/1 
f  41/13/1  42/14/1  15/15/1  13/16/1 
f  42/9/1  43/10/1  17/11/1  15/12/1 
f  43/9/1  44/10/1  19/11/1  17/12/1 
f  44/9/1  45/10/1  21/11/1  19/12/1 
f  45/9/1  46/10/1  23/11/1  21/12/1 
f  46/9/1  47/10/1  25/11/1  23/12/1 
f  47/9/1  48/10/1  27/11/1  25/12/1 
f  48/9/1  49/10/1  29/11/1  27/12/1 
f  49/9/1  50/10/1  31/11/1  29/12/1 
f  50/1/1  51/2/1  33/3/1  31/4/1 
f  52/1/1  53/2/1  36/3/1  35/4/1 
f  53/17/1  54/18/1  37/19/1  36/20/1 
f  54/17/1  55/18/1  38/19/1  37/20/1 
f  55/17/1  56/18/1  39/19/1  38/20/1 
f  56/17/1  57/18/1  40/19/1  39/20/1 
f  57/21/1  58/22/1  41/23/1  40/24/1 
f  58/25/1  59/26/1  42/27/1  41/28/1 
f  59/17/1  60/18/1  43/19/1  42/20/1 
f  60/17/1  61/18/1  44/19/1  43/20/1 
f  61/17/1  62/18/1  45/19/1  44/20/1 
f  62/17/1  63/18/1  46/19/1  45/20/1 
f  63/17/1  64/18/1  47/19/1  46/20/1 
f  64/17/1  65/18/1  48/19/1  47/20/1 
f  65/17/1  66/18/1  49/19/1  48/20/1 
f  66/17/1  67/18/1  50/19/1  49/20/1 
f  67/1/1  68/2/1  51/3/1  50/4/1 
f  69/29/1  70/30/1  53/31/1  52/32/1 
f  70/17/1  71/18/1  54/19/1  53/20/1 
f  71/17/1  72/18/1  55/19/1  54/20/1 
f  72/17/1  73/18/1  56/19/1  55/20/1 
f  73/17/1  74/18/1  57/19/1  56/20/1 
f  74/33/1  75/34/1  58/35/1  57/36/1 
f  75/37/1  76/38/1  59/39/1  58/40/1 
f  76/41/1  77/42/1  60/43/1  59/44/1 
f  77/17/1  78/18/1  61/19/1  60/20/1 
f  78/17/1  79/18/1  62/19/1  61/20/1 
f  79/17/1  80/18/1  63/19/1  62/20/1 
f  80/17/1  81/18/1  64/19/1  63/20/1 
f  81/17/1  82/18/1  65/19/1  64/20/1 
f  82/17/1  83/18/1  66/19/1  65/20/1 
f  83/17/1  84/18/1  67/19/1  66/20/1 
f  84/1/1  85/2/1  68/3/1  67/4/1 
f  86/45/1  87/46/1  70/47/1  69/48/1 
f  87/17/1  88/18/1  71/19/1  70/20/1 
f  88/17/1  89/18/1  72/19/1  71/20/1 
f  89/17/1  90/18/1  73/19/1  72/20/1 
f  90/17/1  91/18/1  74/19/1  73/20/1 
f  91/33/1  92/34/1  75/35/1  74/36/1 
f  92/17/1  93/18/1  76/19/1  75/20/1 
f  93/21/1  94/22/1  77/23/1  76/24/1 
f  94/17/1  95/18/1  78/19/1  77/20/1 
f  95/17/1  96/18/1  79/19/1  78/20/1 
f  96/17/1  97/18/1  80/19/1  79/20/1 
f  97/17/1  98/18/1  81/19/1  80/20/1 
f  98/17/1  99/18/1  82/19/1  81/20/1 
f  99/17/1  100/18/1  83/19/1  82/20/1 
f  100/17/1  101/18/1  84/19/1  83/20/1 
f  101/1/1  102/2/1  85/3/1  84/4/1 
f  103/45/1  104/46/1  87/47/1  86/48/1 
f  104/17/1  105/18/1  88/19/1  87/20/1 
f  105/17/1  106/18/1  89/19/1  88/20/1 
f  106/17/1  107/18/1  90/19/1  89/20/1 
f  107/17/1  108/18/1  91/19/1  90/20/1 
f  108/33/1  109/34/1  92/35/1  91/36/1 
f  109/17/1  110/18/1  93/19/1  92/20/1 
f  110/33/1  111/34/1  94/35/1  93/36/1 
f  111/17/1  112/18/1  95/19/1  94/20/1 
f  112/17/1  113/18/1  96/19/1  95/20/1 
f  113/17/1  114/18/1  97/19/1  96/20/1 
f  114/17/1  115/18/1  98/19/1  97/20/1 
f  115/17/1  116/18/1  99/19/1  98/20/1 
f  116/17/1  117/18/1  100/19/1  99/20/1 
f  117/17/1  118/18/1  101/19/1  100/20/1 
f  118/1/1  119/2/1  102/3/1  101/4/1 
f  120/45/1  121/46/1  104/47/1  103/48/1 
f  121/17/1  122/18/1  105/19/1  104/20/1 
f  122/17/1  123/18/1  106/19/1  105/20/1 
f  123/17/1  124/18/1  107/19/1  106/20/1 
f  124/17/1  125/18/1  108/19/1  107/20/1 
f  125/33/1  126/34/1  109/35/1  108/36/1 
f  126/17/1  127/18/1  110/19/1  109/20/1 
f  127/21/1  128/22/1  111/23/1  110/24/1 
f  128/17/1  129/18/1  112/19/1  111/20/1 
f  129/17/1  130/18/1  113/19/1  112/20/1 
f  130/17/1  131/18/1  114/19/1  113/20/1 
f  131/17/1  132/18/1  115/19/1  114/20/1 
f  132/17/1  133/18/1  116/19/1  115/20/1 
f  133/17/1  134/18/1  117/19/1  116/20/1 
f  134/17/1  135/18/1  118/19/1  117/20/1 
f  135/1/1  136/2/1  119/3/1  118/4/1 
f  137/45/1  138/46/1  121/47/1  120/48/1 
f  138/17/1  139/18/1  122/19/1  121/20/1 
f  139/17/1  140/18/1  123/19/1  122/20/1 
f  140/17/1  141/18/1  124/19/1  123/20/1 
f  141/17/1  142/18/1  125/19/1  124/20/1 
f  142/21/1  143/22/1  126/23/1  125/24/1 
f  143/17/1  144/18/1  127/19/1  126/20/1 
f  144/49/1  145/50/1  128/51/1  127/52/1 
f  145/41/1  146/42/1  129/43/1  128/44/1 
f  146/17/1  147/18/1  130/19/1  129/20/1 
f  147/17/1  148/18/1  131/19/1  130/20/1 
f  148/17/1  149/18/1  132/19/1  131/20/1 
f  149/17/1  150/18/1  133/19/1  132/20/1 
f  150/17/1  151/18/1  134/19/1  133/20/1 
f  151/17/1  152/18/1  135/19/1  134/20/1 
f  152/1/1  153/2/1  136/3/1  135/4/1 
f  154/53/1  155/54/1  138/55/1  137/56/1 
f  155/17/1  156/18/1  139/19/1  138/20/1 
f  156/17/1  157/18/1  140/19/1  139/20/1 
f  157/17/1  158/18/1  141/19/1  140/20/1 
f  158/17/1  159/18/1  142/19/1  141/20/1 
f  159/33/1  160/34/1  143/35/1  142/36/1 
f  160/41/1  161/42/1  144/43/1  143/44/1 
f  161/17/1  162/18/1  145/19/1  144/20/1 
f  162/21/1  163/22/1  146/23/1  145/24/1 
f  163/17/1  164/18/1  147/19/1  146/20/1 
f  164/17/1  165/18/1  148/19/1  147/20/1 
f  165/17/1  166/18/1  149/19/1  148/20/1 
f  166/17/1  167/18/1  150/19/1  149/20/1 
f  167/17/1  168/18/1  151/19/1  150/20/1 
f  168/17/1  169/18/1  152/19/1  151/20/1 
f  169/1/1  170/2/1  153/3/1  152/4/1 
f  171/1/1  172/2/1  155/3/1  154/4/1 
f  172/57/1  173/58/1  156/59/1  155/60/1 
f  173/53/1  174/54/1  157/55/1  156/56/1 
f  174/17/1  175/18/1  158/19/1  157/20/1 
f  175/17/1  176/18/1  159/19/1  158/20/1 
f  176/21/1  177/22/1  160/23/1  159/24/1 
f  177/21/1  178/22/1  161/23/1  160/24/1 
f  178/17/1  179/18/1  162/19/1  161/20/1 
f  179/33/1  180/34/1  163/35/1  162/36/1 
f  180/61/1  181/62/1  164/63/1  163/64/1 
f  181/17/1  182/18/1  165/19/1  164/20/1 
f  182/17/1  183/18/1  166/19/1  165/20/1 
f  183/17/1  184/18/1  167/19/1  166/20/1 
f  184/53/1  185/54/1  168/55/1  167/56/1 
f  185/57/1  186/58/1  169/59/1  168/60/1 
f  186/1/1  187/2/1  170/3/1  169/4/1 
f  188/1/1  189/2/1  172/3/1  171/4/1 
f  189/65/1  190/66/1  173/67/1  172/68/1 
f  190/29/1  191/30/1  174/31/1  173/32/1 
f  191/57/1  192/58/1  175/59/1  174/60/1 
f  192/53/1  193/54/1  176/55/1  175/56/1 
f  193/33/1  194/34/1  177/35/1  176/36/1 
f  194/33/1  195/34/1  178/35/1  177/36/1 
f  195/61/1  196/62/1  179/63/1  178/64/1 
f  196/33/1  197/34/1  180/35/1  179/36/1 
f  197/21/1  198/22/1  181/23/1  180/24/1 
f  198/17/1  199/18/1  182/19/1  181/20/1 
f  199/53/1  200/54/1  183/55/1  182/56/1 
f  200/57/1  201/58/1  184/59/1  183/60/1 
f  201/29/1  202/30/1  185/31/1  184/32/1 
f  202/69/1  203/70/1  186/71/1  185/72/1 
f  203/1/1  204/2/1  187/3/1  186/4/1 
f  205/1/1  206/2/1  189/3/1  188/4/1 
f  206/73/1  207/74/1  190/75/1  189/76/1 
f  207/77/1  208/78/1  191/79/1  190/80/1 
f  208/69/1  209/70/1  192/71/1  191/72/1 
f  209/29/1  210/30/1  193/31/1  192/32/1 
f  210/57/1  211/58/1  194/59/1  193/60/1 
f  211/53/1  212/54/1  195/55/1  194/56/1 
f  212/33/1  213/34/1  196/35/1  195/36/1 
f  213/33/1  214/34/1  197/35/1  196/36/1 
f  214/53/1  215/54/1  198/55/1  197/56/1 
f  215/57/1  216/58/1  199/59/1  198/60/1 
f  216/29/1  217/30/1  200/31/1  199/32/1 
f  217/65/1  218/66/1  201/67/1  200/68/1 
f  218/69/1  219/70/1  202/71/1  201/72/1 
f  219/65/1  220/66/1  203/67/1  202/68/1 
f  220/1/1  221/2/1  204/3/1  203/4/1 
f  222/1/1  223/2/1  206/3/1  205/4/1 
f  223/81/1  224/82/1  207/83/1  206/84/1 
f  224/85/1  225/86/1  208/87/1  207/88/1 
f  225/65/1  226/66/1  209/67/1  208/68/1 
f  226/73/1  227/74/1  210/75/1  209/76/1 
f  227/77/1  228/78/1  211/79/1  210/80/1 
f  228/29/1  229/30/1  212/31/1  211/32/1 
f  229/57/1  230/58/1  213/59/1  212/60/1 
f  230/57/1  231/58/1  214/59/1  213/60/1 
f  231/29/1  232/30/1  215/31/1  214/32/1 
f  232/69/1  233/70/1  216/71/1  215/72/1 
f  233/65/1  234/66/1  217/67/1  216/68/1 
f  234/73/1  235/74/1  218/75/1  217/76/1 
f  235/77/1  236/78/1  219/79/1  218/80/1 
f  236/69/1  237/70/1  220/71/1  219/72/1 
f  237/1/1  238/2/1  221/3/1  220/4/1 
f  239/1/1  240/2/1  223/3/1  222/4/1 
f  240/89/1  241/90/1  224/91/1  223/92/1 
f  241/93/1  242/94/1  225/95/1  224/96/1 
f  242/69/1  243/70/1  226/71/1  225/72/1 
f  243/81/1  244/82/1  227/83/1  226/84/1 
f  244/85/1  245/86/1  228/87/1  227/88/1 
f  245/97/1  246/98/1  229/99/1  228/100/1 
f  246/101/1  247/102/1  230/103/1  229/104/1 
f  247/97/1  248/98/1  231/99/1  230/100/1 
f  248/101/1  249/102/1  232/103/1  231/104/1 
f  249/97/1  250/98/1  233/99/1  232/100/1 
f  250/101/1  251/102/1  234/103/1  233/104/1 
f  251/81/1  252/82/1  235/83/1  234/84/1 
f  252/85/1  253/86/1  236/87/1  235/88/1 
f  253/65/1  254/66/1  237/67/1  236/68/1 
f  254/1/1  255/2/1  238/3/1  237/4/1 
